<?xml version="1.0" encoding="UTF-8"?>
<svg xmlns="http://www.w3.org/2000/svg" xmlns:xlink="http://www.w3.org/1999/xlink" width="375pt" height="374.999991pt" viewBox="0 0 375 374.999991" version="1.2">
<defs>
<clipPath id="clip1">
  <path d="M 112.5 120 L 262.5 120 L 262.5 255 L 112.5 255 Z M 112.5 120 "/>
</clipPath>
<clipPath id="clip2">
  <path d="M 190 154 L 233.621094 154 L 233.621094 193 L 190 193 Z M 190 154 "/>
</clipPath>
<clipPath id="clip3">
  <path d="M 211 182 L 233.621094 182 L 233.621094 234 L 211 234 Z M 211 182 "/>
</clipPath>
<clipPath id="clip4">
  <path d="M 165 209 L 210 209 L 210 239.9375 L 165 239.9375 Z M 165 209 "/>
</clipPath>
<clipPath id="clip5">
  <path d="M 141.371094 195 L 185 195 L 185 233 L 141.371094 233 Z M 141.371094 195 "/>
</clipPath>
<clipPath id="clip6">
  <path d="M 141.371094 154 L 164 154 L 164 205 L 141.371094 205 Z M 141.371094 154 "/>
</clipPath>
<clipPath id="clip7">
  <path d="M 165 147.6875 L 210 147.6875 L 210 179 L 165 179 Z M 165 147.6875 "/>
</clipPath>
</defs>
<g id="surface1">
<path style=" stroke:none;fill-rule:nonzero;fill:rgb(83.918762%,10.198975%,10.198975%);fill-opacity:1;" d="M 189.28125 69.585938 C 187.246094 69.585938 185.214844 69.636719 183.183594 69.738281 C 181.152344 69.835938 179.125 69.988281 177.105469 70.1875 C 175.082031 70.386719 173.0625 70.632812 171.050781 70.933594 C 169.039062 71.230469 167.039062 71.578125 165.042969 71.972656 C 163.050781 72.371094 161.066406 72.816406 159.09375 73.308594 C 157.121094 73.804688 155.164062 74.347656 153.21875 74.9375 C 151.273438 75.527344 149.34375 76.164062 147.429688 76.847656 C 145.515625 77.535156 143.617188 78.265625 141.738281 79.042969 C 139.859375 79.820312 138.003906 80.644531 136.164062 81.515625 C 134.328125 82.382812 132.511719 83.296875 130.71875 84.257812 C 128.925781 85.214844 127.15625 86.214844 125.414062 87.261719 C 123.667969 88.308594 121.953125 89.394531 120.261719 90.523438 C 118.570312 91.652344 116.910156 92.824219 115.277344 94.035156 C 113.644531 95.246094 112.042969 96.496094 110.46875 97.785156 C 108.898438 99.074219 107.359375 100.402344 105.851562 101.769531 C 104.347656 103.132812 102.875 104.535156 101.4375 105.972656 C 100 107.410156 98.597656 108.882812 97.230469 110.390625 C 95.867188 111.894531 94.539062 113.433594 93.25 115.007812 C 91.960938 116.578125 90.710938 118.179688 89.5 119.8125 C 88.285156 121.445312 87.117188 123.109375 85.988281 124.796875 C 84.859375 126.488281 83.769531 128.207031 82.726562 129.949219 C 81.679688 131.695312 80.679688 133.460938 79.71875 135.253906 C 78.761719 137.046875 77.847656 138.863281 76.976562 140.703125 C 76.109375 142.539062 75.285156 144.398438 74.507812 146.277344 C 73.730469 148.15625 72.996094 150.050781 72.3125 151.964844 C 71.628906 153.878906 70.988281 155.808594 70.398438 157.753906 C 69.808594 159.699219 69.269531 161.660156 68.773438 163.632812 C 68.28125 165.605469 67.835938 167.585938 67.4375 169.582031 C 67.042969 171.574219 66.695312 173.578125 66.394531 175.589844 C 66.097656 177.601562 65.847656 179.617188 65.648438 181.640625 C 65.449219 183.664062 65.300781 185.691406 65.199219 187.722656 C 65.101562 189.753906 65.050781 191.785156 65.050781 193.816406 C 65.050781 195.851562 65.101562 197.882812 65.199219 199.914062 C 65.300781 201.941406 65.449219 203.96875 65.648438 205.992188 C 65.847656 208.015625 66.097656 210.035156 66.394531 212.046875 C 66.695312 214.054688 67.042969 216.058594 67.4375 218.054688 C 67.835938 220.046875 68.28125 222.03125 68.773438 224.003906 C 69.269531 225.972656 69.808594 227.933594 70.398438 229.878906 C 70.988281 231.824219 71.628906 233.753906 72.3125 235.667969 C 72.996094 237.582031 73.730469 239.480469 74.507812 241.359375 C 75.285156 243.234375 76.109375 245.09375 76.976562 246.933594 C 77.847656 248.769531 78.761719 250.585938 79.71875 252.378906 C 80.679688 254.171875 81.679688 255.941406 82.726562 257.683594 C 83.769531 259.425781 84.859375 261.144531 85.988281 262.835938 C 87.117188 264.527344 88.285156 266.1875 89.5 267.820312 C 90.710938 269.453125 91.960938 271.054688 93.25 272.628906 C 94.539062 274.199219 95.867188 275.738281 97.230469 277.246094 C 98.597656 278.75 100 280.222656 101.4375 281.660156 C 102.875 283.097656 104.347656 284.5 105.851562 285.863281 C 107.359375 287.230469 108.898438 288.558594 110.46875 289.847656 C 112.042969 291.136719 113.644531 292.386719 115.277344 293.597656 C 116.910156 294.808594 118.570312 295.980469 120.261719 297.109375 C 121.953125 298.238281 123.667969 299.328125 125.414062 300.371094 C 127.15625 301.417969 128.925781 302.417969 130.71875 303.378906 C 132.511719 304.335938 134.328125 305.25 136.164062 306.117188 C 138.003906 306.988281 139.859375 307.8125 141.738281 308.589844 C 143.617188 309.367188 145.515625 310.097656 147.429688 310.785156 C 149.34375 311.46875 151.273438 312.105469 153.21875 312.695312 C 155.164062 313.289062 157.121094 313.828125 159.09375 314.324219 C 161.066406 314.816406 163.050781 315.261719 165.042969 315.660156 C 167.039062 316.054688 169.039062 316.402344 171.050781 316.703125 C 173.0625 317 175.082031 317.25 177.105469 317.449219 C 179.125 317.648438 181.152344 317.796875 183.183594 317.898438 C 185.214844 317.996094 187.246094 318.046875 189.28125 318.046875 C 191.3125 318.046875 193.34375 317.996094 195.375 317.898438 C 197.40625 317.796875 199.433594 317.648438 201.457031 317.449219 C 203.480469 317.25 205.496094 317 207.507812 316.703125 C 209.519531 316.402344 211.523438 316.054688 213.515625 315.660156 C 215.511719 315.261719 217.492188 314.816406 219.464844 314.324219 C 221.4375 313.828125 223.398438 313.289062 225.34375 312.695312 C 227.289062 312.105469 229.21875 311.46875 231.132812 310.785156 C 233.046875 310.097656 234.941406 309.367188 236.820312 308.589844 C 238.699219 307.8125 240.558594 306.988281 242.394531 306.117188 C 244.234375 305.25 246.046875 304.335938 247.839844 303.378906 C 249.632812 302.417969 251.402344 301.417969 253.148438 300.371094 C 254.890625 299.328125 256.609375 298.238281 258.296875 297.109375 C 259.988281 295.980469 261.652344 294.808594 263.285156 293.597656 C 264.917969 292.386719 266.519531 291.136719 268.089844 289.847656 C 269.664062 288.558594 271.203125 287.230469 272.707031 285.863281 C 274.214844 284.5 275.6875 283.097656 277.125 281.660156 C 278.5625 280.222656 279.960938 278.75 281.328125 277.246094 C 282.695312 275.738281 284.019531 274.199219 285.3125 272.628906 C 286.601562 271.054688 287.851562 269.453125 289.0625 267.820312 C 290.273438 266.1875 291.445312 264.527344 292.574219 262.835938 C 293.703125 261.144531 294.789062 259.425781 295.835938 257.683594 C 296.878906 255.941406 297.882812 254.171875 298.839844 252.378906 C 299.800781 250.585938 300.714844 248.769531 301.582031 246.933594 C 302.453125 245.09375 303.273438 243.234375 304.054688 241.359375 C 304.832031 239.480469 305.5625 237.582031 306.246094 235.667969 C 306.933594 233.753906 307.570312 231.824219 308.160156 229.878906 C 308.75 227.933594 309.292969 225.972656 309.785156 224.003906 C 310.28125 222.03125 310.726562 220.046875 311.121094 218.054688 C 311.519531 216.058594 311.867188 214.054688 312.164062 212.046875 C 312.464844 210.035156 312.710938 208.015625 312.910156 205.992188 C 313.109375 203.96875 313.261719 201.941406 313.359375 199.914062 C 313.460938 197.882812 313.507812 195.851562 313.507812 193.816406 C 313.507812 191.785156 313.460938 189.753906 313.359375 187.722656 C 313.261719 185.691406 313.109375 183.664062 312.910156 181.640625 C 312.710938 179.617188 312.464844 177.601562 312.164062 175.589844 C 311.867188 173.578125 311.519531 171.574219 311.121094 169.582031 C 310.726562 167.585938 310.28125 165.605469 309.785156 163.632812 C 309.292969 161.660156 308.75 159.699219 308.160156 157.753906 C 307.570312 155.808594 306.933594 153.878906 306.246094 151.964844 C 305.5625 150.050781 304.832031 148.15625 304.054688 146.277344 C 303.273438 144.398438 302.453125 142.539062 301.582031 140.703125 C 300.714844 138.863281 299.800781 137.046875 298.839844 135.253906 C 297.882812 133.460938 296.878906 131.695312 295.835938 129.949219 C 294.789062 128.207031 293.703125 126.488281 292.574219 124.796875 C 291.445312 123.109375 290.273438 121.445312 289.0625 119.8125 C 287.851562 118.179688 286.601562 116.578125 285.3125 115.007812 C 284.019531 113.433594 282.695312 111.894531 281.328125 110.390625 C 279.960938 108.882812 278.5625 107.410156 277.125 105.972656 C 275.6875 104.535156 274.214844 103.132812 272.707031 101.769531 C 271.203125 100.402344 269.664062 99.074219 268.089844 97.785156 C 266.519531 96.496094 264.917969 95.246094 263.285156 94.035156 C 261.652344 92.824219 259.988281 91.652344 258.296875 90.523438 C 256.609375 89.394531 254.890625 88.308594 253.148438 87.261719 C 251.402344 86.214844 249.632812 85.214844 247.839844 84.257812 C 246.046875 83.296875 244.234375 82.382812 242.394531 81.515625 C 240.558594 80.644531 238.699219 79.820312 236.820312 79.042969 C 234.941406 78.265625 233.046875 77.535156 231.132812 76.847656 C 229.21875 76.164062 227.289062 75.527344 225.34375 74.9375 C 223.398438 74.347656 221.4375 73.804688 219.464844 73.308594 C 217.492188 72.816406 215.511719 72.371094 213.515625 71.972656 C 211.523438 71.578125 209.519531 71.230469 207.507812 70.933594 C 205.496094 70.632812 203.480469 70.386719 201.457031 70.1875 C 199.433594 69.988281 197.40625 69.835938 195.375 69.738281 C 193.34375 69.636719 191.3125 69.585938 189.28125 69.585938 Z M 189.28125 69.585938 "/>
<path style=" stroke:none;fill-rule:nonzero;fill:rgb(0%,0%,0%);fill-opacity:1;" d="M 211.5 195 C 211.5 195.785156 211.460938 196.570312 211.382812 197.351562 C 211.308594 198.132812 211.191406 198.910156 211.039062 199.683594 C 210.886719 200.453125 210.695312 201.214844 210.464844 201.96875 C 210.238281 202.71875 209.972656 203.457031 209.671875 204.183594 C 209.371094 204.910156 209.035156 205.621094 208.667969 206.3125 C 208.296875 207.007812 207.890625 207.679688 207.457031 208.332031 C 207.019531 208.988281 206.550781 209.617188 206.050781 210.226562 C 205.554688 210.832031 205.027344 211.414062 204.46875 211.96875 C 203.914062 212.527344 203.332031 213.054688 202.726562 213.550781 C 202.117188 214.050781 201.488281 214.519531 200.832031 214.957031 C 200.179688 215.390625 199.507812 215.796875 198.8125 216.167969 C 198.121094 216.535156 197.410156 216.871094 196.683594 217.171875 C 195.957031 217.472656 195.21875 217.738281 194.46875 217.964844 C 193.714844 218.195312 192.953125 218.386719 192.183594 218.539062 C 191.410156 218.691406 190.632812 218.808594 189.851562 218.882812 C 189.070312 218.960938 188.285156 219 187.5 219 C 186.714844 219 185.929688 218.960938 185.148438 218.882812 C 184.367188 218.808594 183.589844 218.691406 182.816406 218.539062 C 182.046875 218.386719 181.285156 218.195312 180.53125 217.964844 C 179.78125 217.738281 179.042969 217.472656 178.316406 217.171875 C 177.589844 216.871094 176.878906 216.535156 176.1875 216.167969 C 175.492188 215.796875 174.820312 215.390625 174.167969 214.957031 C 173.511719 214.519531 172.882812 214.050781 172.273438 213.550781 C 171.667969 213.054688 171.085938 212.527344 170.53125 211.96875 C 169.972656 211.414062 169.445312 210.832031 168.949219 210.226562 C 168.449219 209.617188 167.980469 208.988281 167.542969 208.332031 C 167.109375 207.679688 166.703125 207.007812 166.332031 206.3125 C 165.964844 205.621094 165.628906 204.910156 165.328125 204.183594 C 165.027344 203.457031 164.761719 202.71875 164.535156 201.96875 C 164.304688 201.214844 164.113281 200.453125 163.960938 199.683594 C 163.808594 198.910156 163.691406 198.132812 163.617188 197.351562 C 163.539062 196.570312 163.5 195.785156 163.5 195 C 163.5 194.214844 163.539062 193.429688 163.617188 192.648438 C 163.691406 191.867188 163.808594 191.089844 163.960938 190.316406 C 164.113281 189.546875 164.304688 188.785156 164.535156 188.03125 C 164.761719 187.28125 165.027344 186.542969 165.328125 185.816406 C 165.628906 185.089844 165.964844 184.378906 166.332031 183.6875 C 166.703125 182.992188 167.109375 182.320312 167.542969 181.667969 C 167.980469 181.011719 168.449219 180.382812 168.949219 179.773438 C 169.445312 179.167969 169.972656 178.585938 170.53125 178.03125 C 171.085938 177.472656 171.667969 176.945312 172.273438 176.449219 C 172.882812 175.949219 173.511719 175.480469 174.167969 175.042969 C 174.820312 174.609375 175.492188 174.203125 176.1875 173.832031 C 176.878906 173.464844 177.589844 173.128906 178.316406 172.828125 C 179.042969 172.527344 179.78125 172.261719 180.53125 172.035156 C 181.285156 171.804688 182.046875 171.613281 182.816406 171.460938 C 183.589844 171.308594 184.367188 171.191406 185.148438 171.117188 C 185.929688 171.039062 186.714844 171 187.5 171 C 188.285156 171 189.070312 171.039062 189.851562 171.117188 C 190.632812 171.191406 191.410156 171.308594 192.183594 171.460938 C 192.953125 171.613281 193.714844 171.804688 194.46875 172.035156 C 195.21875 172.261719 195.957031 172.527344 196.683594 172.828125 C 197.410156 173.128906 198.121094 173.464844 198.8125 173.832031 C 199.507812 174.203125 200.179688 174.609375 200.832031 175.042969 C 201.488281 175.480469 202.117188 175.949219 202.726562 176.449219 C 203.332031 176.945312 203.914062 177.472656 204.46875 178.03125 C 205.027344 178.585938 205.554688 179.167969 206.050781 179.773438 C 206.550781 180.382812 207.019531 181.011719 207.457031 181.667969 C 207.890625 182.320312 208.296875 182.992188 208.667969 183.6875 C 209.035156 184.378906 209.371094 185.089844 209.671875 185.816406 C 209.972656 186.542969 210.238281 187.28125 210.464844 188.03125 C 210.695312 188.785156 210.886719 189.546875 211.039062 190.316406 C 211.191406 191.089844 211.308594 191.867188 211.382812 192.648438 C 211.460938 193.429688 211.5 194.214844 211.5 195 Z M 211.5 195 "/>
<g clip-path="url(#clip1)" clip-rule="nonzero">
<path style=" stroke:none;fill-rule:nonzero;fill:rgb(0%,0%,0%);fill-opacity:1;" d="M 165 120 L 151.273438 135 L 127.5 135 C 119.210938 135 112.5 141.710938 112.5 150 L 112.5 240 C 112.5 248.289062 119.210938 255 127.5 255 L 247.5 255 C 255.789062 255 262.5 248.289062 262.5 240 L 262.5 150 C 262.5 141.710938 255.789062 135 247.5 135 L 223.726562 135 L 210 120 Z M 187.5 232.5 C 166.800781 232.5 150 215.699219 150 195 C 150 174.300781 166.800781 157.5 187.5 157.5 C 208.199219 157.5 225 174.300781 225 195 C 225 215.699219 208.199219 232.5 187.5 232.5 Z M 187.5 232.5 "/>
</g>
<g clip-path="url(#clip2)" clip-rule="nonzero">
<path style=" stroke:none;fill-rule:nonzero;fill:rgb(100%,100%,100%);fill-opacity:1;" d="M 212.066406 154.75 L 190.28125 167.324219 L 211.824219 179.765625 L 233.621094 192.347656 C 233.128906 176.507812 224.648438 162.671875 212.066406 154.75 "/>
</g>
<g clip-path="url(#clip3)" clip-rule="nonzero">
<path style=" stroke:none;fill-rule:nonzero;fill:rgb(100%,100%,100%);fill-opacity:1;" d="M 211.824219 182.976562 L 211.824219 233.027344 C 224.457031 225.179688 233.019531 211.378906 233.605469 195.550781 L 211.824219 182.976562 "/>
</g>
<g clip-path="url(#clip4)" clip-rule="nonzero">
<path style=" stroke:none;fill-rule:nonzero;fill:rgb(100%,100%,100%);fill-opacity:1;" d="M 209.042969 209.457031 L 187.5 221.898438 L 187.492188 221.898438 L 165.6875 234.488281 C 172.1875 237.976562 179.609375 239.957031 187.5 239.957031 C 195.28125 239.957031 202.613281 238.023438 209.042969 234.621094 L 209.042969 209.457031 "/>
</g>
<g clip-path="url(#clip5)" clip-rule="nonzero">
<path style=" stroke:none;fill-rule:nonzero;fill:rgb(100%,100%,100%);fill-opacity:1;" d="M 184.710938 220.289062 L 163.175781 207.859375 L 141.371094 195.273438 C 141.859375 211.117188 150.347656 224.949219 162.925781 232.871094 L 184.710938 220.289062 "/>
</g>
<g clip-path="url(#clip6)" clip-rule="nonzero">
<path style=" stroke:none;fill-rule:nonzero;fill:rgb(100%,100%,100%);fill-opacity:1;" d="M 163.175781 204.648438 L 163.175781 154.59375 C 150.527344 162.441406 141.972656 176.242188 141.382812 192.070312 L 163.175781 204.648438 "/>
</g>
<g clip-path="url(#clip7)" clip-rule="nonzero">
<path style=" stroke:none;fill-rule:nonzero;fill:rgb(100%,100%,100%);fill-opacity:1;" d="M 187.5 147.664062 C 179.714844 147.664062 172.386719 149.59375 165.953125 153 L 165.953125 178.15625 L 187.5 165.71875 L 209.304688 153.136719 C 202.808594 149.648438 195.386719 147.664062 187.5 147.664062 "/>
</g>
</g>
</svg>
